<svg xmlns="http://www.w3.org/2000/svg" width="65" height="65" viewBox="0 0 65 65">
  <g transform="translate(5 5)">
    <circle cx="27.5" cy="27.5" r="27.5" fill="none" stroke="#5d78ff" stroke-width="2"/>
    <path d="M20,15 L35,15 C37,15 38,16 38,18 L38,37 C38,39 37,40 35,40 L20,40 C18,40 17,39 17,37 L17,18 C17,16 18,15 20,15 Z" fill="none" stroke="#5d78ff" stroke-width="2"/>
    <line x1="17" y1="22" x2="38" y2="22" stroke="#5d78ff" stroke-width="2"/>
    <circle cx="22" cy="27" r="1.5" fill="#5d78ff"/>
    <circle cx="27.5" cy="27" r="1.5" fill="#5d78ff"/>
    <circle cx="33" cy="27" r="1.5" fill="#5d78ff"/>
    <circle cx="22" cy="33" r="1.5" fill="#5d78ff"/>
    <circle cx="27.5" cy="33" r="1.5" fill="#5d78ff"/>
    <circle cx="33" cy="33" r="1.5" fill="#5d78ff"/>
  </g>
</svg>